# xmcd CD database file
#
# Track frame offsets:
#	150
#	16737
#	34812
#	50000
#	65675
#	83225
#	99300
#	110637
#	127537
#	153850
#
# Disc length: 2243 seconds
#
# Revision: 0
# Processed by: cddbd v1.5.1PL2 Copyright (c) Steve Scherf et al.
# Submitted via: Feurio! 1.68 - http://www.feurio.com
#
DISCID=7308c10a
DTITLE=Chris Youlden - Citychild
DYEAR=1900
DGENRE=Blues
TTITLE0=Conjure Wife
TTITLE1=Born And Raised In The City
TTITLE2=The Morning Light
TTITLE3=Keep Your Lamp Lit
TTITLE4=Little Cog In A Big Wheel
TTITLE5=Peace Of Mind
TTITLE6=Walking The Streets Again
TTITLE7=Spare Change
TTITLE8=Love And Pain
TTITLE9=It Ain't For Real
EXTD=ARD Musik Archiv HF 9518
EXTT0=
EXTT1=
EXTT2=
EXTT3=
EXTT4=
EXTT5=
EXTT6=
EXTT7=
EXTT8=
EXTT9=
PLAYORDER=
